<?xml version="1.0" encoding="utf-8"?>
<!-- Generator: Adobe Illustrator 24.0.1, SVG Export Plug-In . SVG Version: 6.00 Build 0)  -->
<svg version="1.1" id="Layer_1" xmlns="http://www.w3.org/2000/svg" xmlns:xlink="http://www.w3.org/1999/xlink" x="0px" y="0px"
	 viewBox="0 0 2460.2 703" style="enable-background:new 0 0 2460.2 703;" xml:space="preserve">
<style type="text/css">
	.st0{fill:#70CDDD;}
	.st1{fill:#1572BA;}
	.st2{fill:#34235E;}
	.st3{fill:#010101;}
</style>
<g>
	<g>
		<g>
			<path class="st0" d="M590.7,637H636c27.8,0,51.7-14.3,66-38.2c13.5-23.9,13.5-52.5,0-76.3L421.3,38.2C407.8,14.3,383.1,0,355.3,0
				s-51.7,14.3-66,38.2L10.1,522.5c-13.5,23.9-13.5,52.5,0,76.3c13.5,23.9,38.2,38.2,66,38.2h45.3c-4.8-4.8-8.7-11.1-12.7-16.7
				c-16.7-29.4-16.7-64.4,0-93.8L275,237.8c16.7-29.4,46.9-46.9,81.1-46.9c33.4,0,64.4,17.5,81.1,46.9l166.2,288.7
				c16.7,29.4,16.7,64.4,0,93.8C599.4,625.8,595.4,631.4,590.7,637z"/>
		</g>
		<g>
			<path class="st1" d="M477.7,637h44.5c23.1,0,43.7-11.9,54.9-31.8c11.1-19.9,11.1-43.7,0-63.6L410.9,252.9
				c-11.1-19.9-31.8-31.8-54.9-31.8c-23.1,0-43.7,11.9-54.9,31.8l-167,287.9c-11.1,19.9-11.1,43.7,0,63.6s31.8,31.8,54.9,31.8h44.5
				c-1.6-1.6-2.4-4-4-5.6c-12.7-22.3-12.7-48.5,0-70.8L294,448.5c12.7-22.3,35.8-35,61.2-35l0,0c25.4,0,48.5,13.5,61.2,35
				l64.4,111.3c12.7,22.3,12.7,48.5,0,70.8C480.1,633,478.5,634.6,477.7,637z"/>
		</g>
		<path class="st2" d="M420.5,637c15.1,0,27.8-8,35-20.7c7.2-12.7,7.2-27.8,0-40.6l-64.4-111.3c-7.2-12.7-20.7-20.7-35-20.7
			c-15.1,0-27.8,8-35,20.7l-64.4,111.3c-7.2,12.7-7.2,27.8,0,40.6c7.2,12.7,20.7,20.7,35,20.7H420.5z"/>
	</g>
	<g>
		<path class="st3" d="M967.6,89.9l-3.2,40.6c-2.4-0.8-6.4-0.8-11.9-0.8c-24.7,0-43.7,8-56.5,23.9c-12.7,15.9-19.1,38.2-19.1,66.8
			v70.8h-42.1V90.7h42.1v42.9c18.3-30.2,43.7-45.3,76.3-45.3C959.6,88.3,963.6,89.1,967.6,89.9z"/>
		<path class="st3" d="M1171.2,201.2h-162.2c2.4,18.3,8.7,32.6,19.9,42.9c11.9,11.1,24.7,15.9,40.6,15.9c27.8,0,46.9-11.9,58.8-35
			l37.4,8c-8,20.7-20.7,36.6-37.4,46.9c-16.7,11.1-36.6,15.9-59.6,15.9c-27.8,0-51.7-9.5-71.6-29.4s-30.2-44.5-30.2-75.5
			s10.3-57.3,30.2-76.3c19.9-19.9,44.5-29.4,73.2-29.4c27,0,50.1,9.5,70,28.6c19.1,19.1,29.4,43.7,30.2,73.2v14.3H1171.2z
			 M1032,135.2c-11.9,8.7-19.1,20.7-22.3,35.8h117.7c-3.2-15.9-10.3-27.8-19.9-36.6c-10.3-8.7-22.3-12.7-36.6-12.7
			C1056.7,122.5,1043.9,127.2,1032,135.2z"/>
		<path class="st3" d="M1398.6,291.1h-42.1v-22.3c-19.1,19.1-42.9,28.6-72.4,28.6c-27,0-50.1-10.3-70-30.2s-29.4-45.3-29.4-75.5
			s9.5-56.5,29.4-75.5c19.9-19.9,42.9-30.2,70-30.2c30.2,0,54.1,9.5,72.4,28.6V0.8h42.1V291.1z M1335.8,241
			c13.5-12.7,19.9-29.4,19.9-49.3s-6.4-36.6-19.9-49.3c-13.5-12.7-28.6-19.1-46.1-19.1c-18.3,0-34.2,6.4-46.1,19.1
			c-12.7,12.7-18.3,29.4-18.3,49.3c0,20.7,6.4,37.4,18.3,49.3c12.7,12.7,27.8,19.1,46.1,19.1C1307.2,260,1323.1,253.7,1335.8,241z"
			/>
		<path class="st3" d="M1628.4,291.1h-42.1v-24.7c-16.7,19.9-39.8,30.2-69.2,30.2c-23.9,0-43.7-8-58.1-23.9
			c-15.1-15.9-22.3-35.8-22.3-61.2V90.7h42.1v112.1c0,16.7,4.8,29.4,13.5,39.8c8.7,10.3,19.9,15.1,35,15.1
			c18.3,0,33.4-6.4,43.7-19.1c10.3-12.7,15.9-31,15.9-55.7V90.7h42.1v200.4H1628.4z"/>
		<path class="st3" d="M1855.9,291.1h-50.1l-52.5-72.4l-52.5,72.4h-50.1l71.6-97.8l-71.6-102.6h50.1l52.5,75.5l52.5-75.5h50.1
			l-71.6,102.6L1855.9,291.1z"/>
		<path class="st3" d="M1021.7,634.6h-42.1v-24.7c-16.7,19.9-39.8,30.2-69.2,30.2c-23.9,0-43.7-8-58.1-23.9
			c-15.1-15.9-22.3-35.8-22.3-61.2V435h42.1v112.1c0,16.7,4.8,29.4,13.5,39.8c8.7,10.3,19.9,15.1,35,15.1c18.3,0,33.4-6.4,43.7-19.1
			c10.3-12.7,15.9-31,15.9-55.7V435h42.1v199.6H1021.7z"/>
		<path class="st3" d="M1247.5,458.8c19.9,19.9,29.4,45.3,29.4,75.5c0,31-9.5,56.5-29.4,75.5c-19.9,19.9-42.9,30.2-70,30.2
			c-30.2,0-54.9-9.5-72.4-28.6V703H1063V435h42.1v23.1c18.3-19.1,42.1-28.6,72.4-28.6C1205.4,428.6,1228.4,439,1247.5,458.8z
			 M1218.1,584.5c12.7-12.7,18.3-29.4,18.3-49.3c0-20.7-6.4-37.4-18.3-50.1c-12.7-12.7-27.8-18.3-46.9-18.3
			c-17.5,0-32.6,6.4-46.1,19.1c-13.5,12.7-19.9,29.4-19.9,49.3s6.4,36.6,19.9,49.3c13.5,12.7,28.6,19.1,46.1,19.1
			C1190.3,603.6,1205.4,597.2,1218.1,584.5z"/>
		<path class="st3" d="M1506,634.6h-42.1v-22.3c-19.1,19.1-42.9,28.6-72.4,28.6c-27,0-50.1-10.3-70-30.2s-29.4-45.3-29.4-75.5
			c0-31,9.5-56.5,29.4-75.5c19.9-19.9,42.9-30.2,70-30.2c30.2,0,54.1,9.5,72.4,28.6V344.3h42.1V634.6z M1443.9,584.5
			c13.5-12.7,19.9-29.4,19.9-49.3s-6.4-36.6-19.9-49.3c-13.5-12.7-28.6-19.1-46.1-19.1c-18.3,0-34.2,6.4-46.1,19.1
			c-12.7,12.7-18.3,29.4-18.3,49.3c0,20.7,6.4,37.4,18.3,49.3c12.7,12.7,27.8,19.1,46.1,19.1
			C1415.3,603.6,1430.4,597.2,1443.9,584.5z"/>
		<path class="st3" d="M1747.7,634.6h-42.1v-23.1c-18.3,19.1-42.1,28.6-72.4,28.6c-27,0-50.1-10.3-70-30.2s-29.4-44.5-29.4-75.5
			s9.5-56.5,29.4-75.5c19.9-19.9,42.9-30.2,70-30.2c30.2,0,54.9,9.5,72.4,28.6v-23.1h42.1V634.6z M1685.7,583.7
			c13.5-12.7,19.9-29.4,19.9-49.3s-6.4-36.6-19.9-49.3c-13.5-12.7-28.6-19.1-46.1-19.1c-19.1,0-34.2,6.4-46.9,18.3
			c-12.7,12.7-18.3,29.4-18.3,50.1c0,20.7,6.4,37.4,18.3,49.3c11.9,11.9,27.8,19.1,46.9,19.1
			C1657.1,603.6,1672.2,597.2,1685.7,583.7z"/>
		<path class="st3" d="M1927.4,625.1c-17.5,10.3-34.2,15.1-49.3,15.1c-22.3,0-39.8-6.4-53.3-19.1c-12.7-12.7-19.1-31-19.1-54.9v-97
			h-42.9v-35h42.9v-62h42.1v62h68.4v35h-68.4v94.6c0,11.9,3.2,21.5,8.7,27.8c6.4,6.4,14.3,9.5,23.9,9.5c11.9,0,23.1-4,34.2-11.1
			L1927.4,625.1z"/>
		<path class="st3" d="M2126.2,544.7H1964c2.4,18.3,8.7,32.6,19.9,42.9c11.9,11.1,24.7,15.9,40.6,15.9c27.8,0,46.9-11.9,58.8-35
			l37.4,8c-8,20.7-20.7,36.6-37.4,46.9c-16.7,11.1-36.6,15.9-59.6,15.9c-27.8,0-51.7-9.5-71.6-29.4s-30.2-44.5-30.2-75.5
			s10.3-57.3,30.2-76.3c19.9-19.9,44.5-29.4,73.2-29.4c27,0,50.1,9.5,70,28.6c19.1,19.1,29.4,43.7,30.2,73.2v14.3H2126.2z
			 M1987.1,478.7c-11.9,8.7-19.1,20.7-22.3,35.8h117.7c-3.2-15.9-10.3-27.8-19.9-36.6c-10.3-8.7-22.3-12.7-36.6-12.7
			C2011.7,466,1999,470.8,1987.1,478.7z"/>
		<path class="st3" d="M2285.3,434.2l-3.2,40.6c-2.4-0.8-6.4-0.8-11.9-0.8c-24.7,0-43.7,8-56.5,23.9c-12.7,15.9-19.1,38.2-19.1,66.8
			v70.8h-42.1V435h42.1v42.9c18.3-30.2,43.7-45.3,76.3-45.3C2277.3,431.8,2282.1,432.6,2285.3,434.2z"/>
		<path class="st3" d="M2330.6,572.6c1.6,11.1,6.4,19.9,15.9,25.4c8.7,5.6,19.9,8.7,34.2,8.7c11.9,0,21.5-2.4,29.4-7.2
			c7.2-4.8,10.3-11.1,10.3-19.1c0-11.9-8.7-19.9-27-23.9l-43.7-8.7c-36.6-8-54.9-26.2-54.9-54.9c0-19.1,7.2-34.2,21.5-46.1
			c14.3-11.9,33.4-17.5,57.3-17.5c22.3,0,41.4,5.6,56.5,15.9c15.1,11.1,23.9,24.7,27.8,42.1l-39.8,8.7c-1.6-10.3-6.4-17.5-14.3-23.9
			c-8-6.4-18.3-8.7-31-8.7c-11.9,0-19.9,2.4-26.2,7.2c-6.4,5.6-9.5,11.1-9.5,19.1c0,11.1,8,19.1,23.9,22.3l47.7,10.3
			c16.7,4,29.4,10.3,38.2,19.1c9.5,9.5,13.5,20.7,13.5,35c0,20.7-8,36.6-23.1,47.7c-15.1,11.1-35.8,16.7-61.2,16.7
			c-23.9,0-43.7-4.8-60.4-15.1s-25.4-24.7-28.6-43.7L2330.6,572.6z"/>
	</g>
</g>
</svg>
